<?xml version="1.0" encoding="UTF-8" standalone="no"?>
<!DOCTYPE svg PUBLIC "-//W3C//DTD SVG 1.1//EN" "http://www.w3.org/Graphics/SVG/1.1/DTD/svg11.dtd">
<svg width="100%" height="100%" viewBox="0 0 128 128" version="1.1" xmlns="http://www.w3.org/2000/svg" xmlns:xlink="http://www.w3.org/1999/xlink" xml:space="preserve" xmlns:serif="http://www.serif.com/" style="fill-rule:evenodd;clip-rule:evenodd;stroke-linecap:round;stroke-linejoin:round;stroke-miterlimit:1.5;">
    <g transform="matrix(1.30633,0,0,1.30633,-22.5987,-17.2764)">
        <path d="M111.873,40.149C111.873,27.968 101.984,18.08 89.804,18.08L42.78,18.08C30.6,18.08 20.711,27.968 20.711,40.149L20.711,84.286C20.711,96.467 30.6,106.355 42.78,106.355L89.804,106.355C101.984,106.355 111.873,96.467 111.873,84.286L111.873,40.149Z" style="fill:rgb(61,90,108);stroke:rgb(164,150,148);stroke-width:1.08px;"/>
    </g>
    <g transform="matrix(1.17192,0,0,1.17192,-11.8816,-11.0027)">
        <path d="M72.703,27.162L94.727,49.185L94.727,100.838L33.443,100.838L33.443,27.162L72.703,27.162Z" style="fill:rgb(237,231,217);stroke:rgb(164,150,148);stroke-width:0.36px;"/>
        <g transform="matrix(-0.577267,-0.577267,0.384462,-0.384462,121.726,111.291)">
            <path d="M96.255,17.655L115.098,46.005L77.411,46.005L96.255,17.655Z" style="fill:rgb(237,231,217);stroke:rgb(164,150,148);stroke-width:0.51px;"/>
        </g>
    </g>
    <g transform="matrix(1.86188,0,0,1.86188,-36.3274,-54.5063)">
        <circle cx="64.07" cy="75.237" r="17.688" style="fill:rgb(90,24,7);fill-opacity:0.62;stroke:rgb(213,160,33);stroke-width:0.75px;"/>
    </g>
    <g transform="matrix(2.26636,0,0,2.26636,-45.5853,-55.3752)">
        <path d="M53.781,65.481C53.735,65.938 53.575,66.326 53.301,66.646C52.479,66.326 51.817,65.733 51.315,64.865C50.858,64.18 50.629,63.403 50.629,62.536C50.675,62.399 50.698,62.284 50.698,62.193L51.109,62.193C51.429,62.193 51.703,62.239 51.931,62.33L51.931,62.536C51.931,63.129 52.068,63.655 52.342,64.111C52.707,64.751 53.187,65.207 53.781,65.481ZM58.987,64.865C58.531,65.687 57.868,66.281 57.001,66.646C56.772,66.326 56.612,65.938 56.521,65.481C57.115,65.207 57.571,64.773 57.891,64.18C58.211,63.677 58.371,63.129 58.371,62.536L58.371,62.33C58.599,62.239 58.873,62.193 59.193,62.193L59.672,62.193C59.718,62.284 59.695,62.49 59.604,62.81C59.558,63.586 59.353,64.271 58.987,64.865ZM55.151,58.014C56.11,58.014 56.955,58.288 57.686,58.836C57.503,59.247 57.252,59.59 56.932,59.864C56.43,59.499 55.882,59.316 55.288,59.316C54.603,59.316 53.963,59.499 53.37,59.864C53.096,59.636 52.845,59.293 52.616,58.836C53.438,58.288 54.283,58.014 55.151,58.014ZM55.151,63.632C55.425,63.677 55.653,63.586 55.836,63.358L56.247,63.632C56.11,64.043 56.041,64.477 56.041,64.933C56.087,65.527 56.247,66.052 56.521,66.509C56.841,67.011 57.275,67.4 57.823,67.674C58.325,67.948 58.805,68.085 59.261,68.085C59.398,68.085 59.49,68.062 59.535,68.016L59.878,68.016C59.969,68.153 59.946,68.244 59.809,68.29C59.216,68.519 58.622,68.633 58.028,68.633C57.434,68.633 56.886,68.496 56.384,68.222C55.79,67.902 55.379,67.582 55.151,67.263C55.06,67.308 54.9,67.468 54.671,67.742C54.489,67.97 54.306,68.13 54.123,68.222C53.621,68.541 53.027,68.701 52.342,68.701C51.657,68.701 51.063,68.61 50.561,68.427C50.47,68.381 50.424,68.313 50.424,68.222C50.424,68.176 50.447,68.153 50.492,68.153L50.766,68.153C50.903,68.199 50.995,68.222 51.041,68.222C51.543,68.222 52.045,68.085 52.548,67.811C53.05,67.582 53.438,67.194 53.712,66.646C54.032,66.098 54.192,65.573 54.192,65.07C54.192,64.568 54.1,64.088 53.918,63.632L54.466,63.358C54.649,63.54 54.877,63.632 55.151,63.632ZM56.041,62.81C56.087,62.718 56.11,62.627 56.11,62.536C56.156,62.079 55.927,61.782 55.425,61.645L55.425,61.028C56.247,60.983 56.932,60.64 57.48,60.001C58.074,59.407 58.371,58.676 58.371,57.809C58.371,56.987 58.165,56.347 57.754,55.891C57.708,55.845 57.686,55.799 57.686,55.754C57.686,55.708 57.731,55.685 57.823,55.685C57.914,55.685 57.982,55.708 58.028,55.754C59.079,56.621 59.581,57.649 59.535,58.836C59.535,59.065 59.467,59.361 59.33,59.727C59.238,60.001 59.193,60.206 59.193,60.343C59.604,60.343 60.083,60.526 60.631,60.891C61.088,61.211 61.453,61.645 61.727,62.193C62.047,62.741 62.23,63.289 62.276,63.837C62.276,64.066 62.23,64.18 62.139,64.18C62.093,64.18 62.07,64.134 62.07,64.043C61.933,63.449 61.545,62.947 60.905,62.536C60.175,62.033 59.421,61.828 58.645,61.919C57.777,62.01 57.069,62.399 56.521,63.084L56.041,62.81ZM54.192,62.536C54.192,62.627 54.215,62.718 54.26,62.81L53.781,63.084C53.233,62.353 52.502,61.965 51.589,61.919C50.766,61.873 50.059,62.056 49.465,62.467C48.78,62.924 48.369,63.449 48.232,64.043C48.232,64.134 48.209,64.18 48.163,64.18C48.026,64.18 47.981,64.043 48.026,63.769C48.072,63.266 48.232,62.764 48.506,62.262C48.825,61.668 49.214,61.211 49.67,60.891C50.218,60.526 50.698,60.343 51.109,60.343C51.109,60.252 51.041,60.024 50.903,59.658C50.812,59.339 50.766,59.065 50.766,58.836C50.766,57.695 51.269,56.667 52.274,55.754C52.365,55.708 52.433,55.685 52.479,55.685C52.57,55.685 52.616,55.708 52.616,55.754C52.616,55.799 52.593,55.845 52.548,55.891C52.137,56.347 51.931,56.987 51.931,57.809C51.977,58.676 52.274,59.407 52.822,60.001C53.415,60.64 54.1,60.983 54.877,61.028L54.877,61.645C54.42,61.782 54.192,62.079 54.192,62.536Z" style="fill:rgb(213,160,33);fill-rule:nonzero;"/>
    </g>
</svg>
